<mxfile host="app.diagrams.net" agent="Mozilla/5.0 (Macintosh; Intel Mac OS X 10_15_7) AppleWebKit/537.36 (KHTML, like Gecko) Chrome/135.0.0.0 Safari/537.36" version="26.2.14" pages="2">
  <diagram name="mock" id="jweh2v3OlA_JTr8bWbLS">
    <mxGraphModel dx="1466" dy="790" grid="1" gridSize="10" guides="1" tooltips="1" connect="1" arrows="1" fold="1" page="1" pageScale="1" pageWidth="850" pageHeight="1100" math="0" shadow="0">
      <root>
        <mxCell id="0" />
        <mxCell id="1" parent="0" />
        <mxCell id="pAZi2lpsqg6GbHsb8ALX-1" value="User 1" style="shape=umlActor;verticalLabelPosition=bottom;verticalAlign=top;html=1;outlineConnect=0;strokeColor=default;" vertex="1" parent="1">
          <mxGeometry x="110" y="180" width="30" height="60" as="geometry" />
        </mxCell>
        <mxCell id="pAZi2lpsqg6GbHsb8ALX-25" style="edgeStyle=orthogonalEdgeStyle;rounded=0;orthogonalLoop=1;jettySize=auto;html=1;" edge="1" parent="1" source="pAZi2lpsqg6GbHsb8ALX-2" target="pAZi2lpsqg6GbHsb8ALX-8">
          <mxGeometry relative="1" as="geometry" />
        </mxCell>
        <mxCell id="pAZi2lpsqg6GbHsb8ALX-2" value="User 2" style="shape=umlActor;verticalLabelPosition=bottom;verticalAlign=top;html=1;outlineConnect=0;strokeColor=default;" vertex="1" parent="1">
          <mxGeometry x="110" y="290" width="30" height="60" as="geometry" />
        </mxCell>
        <mxCell id="pAZi2lpsqg6GbHsb8ALX-22" style="edgeStyle=orthogonalEdgeStyle;rounded=0;orthogonalLoop=1;jettySize=auto;html=1;" edge="1" parent="1" source="pAZi2lpsqg6GbHsb8ALX-3" target="pAZi2lpsqg6GbHsb8ALX-7">
          <mxGeometry relative="1" as="geometry">
            <mxPoint x="300" y="430" as="targetPoint" />
          </mxGeometry>
        </mxCell>
        <mxCell id="pAZi2lpsqg6GbHsb8ALX-3" value="API GW&lt;div&gt;-auth&lt;/div&gt;&lt;div&gt;-ssl&lt;/div&gt;&lt;div&gt;-rate limit&lt;/div&gt;" style="shape=trapezoid;perimeter=trapezoidPerimeter;whiteSpace=wrap;html=1;fixedSize=1;direction=south;" vertex="1" parent="1">
          <mxGeometry x="170" y="70" width="60" height="120" as="geometry" />
        </mxCell>
        <mxCell id="pAZi2lpsqg6GbHsb8ALX-4" style="edgeStyle=orthogonalEdgeStyle;rounded=0;orthogonalLoop=1;jettySize=auto;html=1;entryX=0.325;entryY=0.983;entryDx=0;entryDy=0;entryPerimeter=0;" edge="1" parent="1" source="pAZi2lpsqg6GbHsb8ALX-1" target="pAZi2lpsqg6GbHsb8ALX-3">
          <mxGeometry relative="1" as="geometry" />
        </mxCell>
        <mxCell id="pAZi2lpsqg6GbHsb8ALX-5" style="edgeStyle=orthogonalEdgeStyle;rounded=0;orthogonalLoop=1;jettySize=auto;html=1;entryX=0.667;entryY=1;entryDx=0;entryDy=0;entryPerimeter=0;" edge="1" parent="1" source="pAZi2lpsqg6GbHsb8ALX-2" target="pAZi2lpsqg6GbHsb8ALX-3">
          <mxGeometry relative="1" as="geometry" />
        </mxCell>
        <mxCell id="pAZi2lpsqg6GbHsb8ALX-7" value="" style="rounded=0;whiteSpace=wrap;html=1;dashed=1;" vertex="1" parent="1">
          <mxGeometry x="300" y="20" width="355" height="190" as="geometry" />
        </mxCell>
        <mxCell id="pAZi2lpsqg6GbHsb8ALX-8" value="" style="rounded=0;whiteSpace=wrap;html=1;dashed=1;" vertex="1" parent="1">
          <mxGeometry x="310" y="330" width="355" height="230" as="geometry" />
        </mxCell>
        <mxCell id="pAZi2lpsqg6GbHsb8ALX-13" style="edgeStyle=orthogonalEdgeStyle;rounded=0;orthogonalLoop=1;jettySize=auto;html=1;exitX=1;exitY=0.5;exitDx=0;exitDy=0;" edge="1" parent="1" source="pAZi2lpsqg6GbHsb8ALX-9" target="pAZi2lpsqg6GbHsb8ALX-10">
          <mxGeometry relative="1" as="geometry" />
        </mxCell>
        <mxCell id="pAZi2lpsqg6GbHsb8ALX-31" style="edgeStyle=orthogonalEdgeStyle;rounded=0;orthogonalLoop=1;jettySize=auto;html=1;exitX=0.5;exitY=0;exitDx=0;exitDy=0;entryX=0.5;entryY=1;entryDx=0;entryDy=0;" edge="1" parent="1" source="pAZi2lpsqg6GbHsb8ALX-9" target="pAZi2lpsqg6GbHsb8ALX-28">
          <mxGeometry relative="1" as="geometry" />
        </mxCell>
        <mxCell id="pAZi2lpsqg6GbHsb8ALX-9" value="Chat Servers" style="rounded=0;whiteSpace=wrap;html=1;" vertex="1" parent="1">
          <mxGeometry x="350" y="380" width="120" height="60" as="geometry" />
        </mxCell>
        <mxCell id="pAZi2lpsqg6GbHsb8ALX-14" style="edgeStyle=orthogonalEdgeStyle;rounded=0;orthogonalLoop=1;jettySize=auto;html=1;entryX=0.5;entryY=0;entryDx=0;entryDy=0;" edge="1" parent="1" source="pAZi2lpsqg6GbHsb8ALX-10" target="pAZi2lpsqg6GbHsb8ALX-12">
          <mxGeometry relative="1" as="geometry" />
        </mxCell>
        <mxCell id="pAZi2lpsqg6GbHsb8ALX-15" style="edgeStyle=orthogonalEdgeStyle;rounded=0;orthogonalLoop=1;jettySize=auto;html=1;" edge="1" parent="1" source="pAZi2lpsqg6GbHsb8ALX-10" target="pAZi2lpsqg6GbHsb8ALX-11">
          <mxGeometry relative="1" as="geometry" />
        </mxCell>
        <mxCell id="pAZi2lpsqg6GbHsb8ALX-21" value="Worker" style="edgeLabel;html=1;align=center;verticalAlign=middle;resizable=0;points=[];" vertex="1" connectable="0" parent="pAZi2lpsqg6GbHsb8ALX-15">
          <mxGeometry x="0.0909" y="-1" relative="1" as="geometry">
            <mxPoint as="offset" />
          </mxGeometry>
        </mxCell>
        <mxCell id="pAZi2lpsqg6GbHsb8ALX-16" style="edgeStyle=orthogonalEdgeStyle;rounded=0;orthogonalLoop=1;jettySize=auto;html=1;" edge="1" parent="1" source="pAZi2lpsqg6GbHsb8ALX-10">
          <mxGeometry relative="1" as="geometry">
            <mxPoint x="580" y="450" as="targetPoint" />
          </mxGeometry>
        </mxCell>
        <mxCell id="pAZi2lpsqg6GbHsb8ALX-19" style="edgeStyle=orthogonalEdgeStyle;rounded=0;orthogonalLoop=1;jettySize=auto;html=1;exitX=0.75;exitY=1;exitDx=0;exitDy=0;entryX=0.75;entryY=0;entryDx=0;entryDy=0;" edge="1" parent="1" source="pAZi2lpsqg6GbHsb8ALX-10" target="pAZi2lpsqg6GbHsb8ALX-18">
          <mxGeometry relative="1" as="geometry" />
        </mxCell>
        <mxCell id="pAZi2lpsqg6GbHsb8ALX-20" value="Worker" style="edgeLabel;html=1;align=center;verticalAlign=middle;resizable=0;points=[];" vertex="1" connectable="0" parent="pAZi2lpsqg6GbHsb8ALX-19">
          <mxGeometry x="-0.5568" y="-2" relative="1" as="geometry">
            <mxPoint as="offset" />
          </mxGeometry>
        </mxCell>
        <mxCell id="pAZi2lpsqg6GbHsb8ALX-10" value="" style="shape=step;perimeter=stepPerimeter;whiteSpace=wrap;html=1;fixedSize=1;" vertex="1" parent="1">
          <mxGeometry x="520" y="390" width="120" height="40" as="geometry" />
        </mxCell>
        <mxCell id="pAZi2lpsqg6GbHsb8ALX-11" value="Mess DB" style="shape=cylinder3;whiteSpace=wrap;html=1;boundedLbl=1;backgroundOutline=1;size=15;" vertex="1" parent="1">
          <mxGeometry x="535" y="470" width="60" height="80" as="geometry" />
        </mxCell>
        <mxCell id="pAZi2lpsqg6GbHsb8ALX-12" value="Push Noti Service" style="rounded=0;whiteSpace=wrap;html=1;" vertex="1" parent="1">
          <mxGeometry x="700" y="480" width="120" height="60" as="geometry" />
        </mxCell>
        <mxCell id="pAZi2lpsqg6GbHsb8ALX-18" value="Analytics Logging" style="rounded=1;whiteSpace=wrap;html=1;" vertex="1" parent="1">
          <mxGeometry x="535" y="600" width="120" height="60" as="geometry" />
        </mxCell>
        <mxCell id="pAZi2lpsqg6GbHsb8ALX-23" style="edgeStyle=orthogonalEdgeStyle;rounded=0;orthogonalLoop=1;jettySize=auto;html=1;entryX=0;entryY=0.304;entryDx=0;entryDy=0;entryPerimeter=0;" edge="1" parent="1" source="pAZi2lpsqg6GbHsb8ALX-1" target="pAZi2lpsqg6GbHsb8ALX-8">
          <mxGeometry relative="1" as="geometry" />
        </mxCell>
        <mxCell id="pAZi2lpsqg6GbHsb8ALX-24" value="WS" style="edgeLabel;html=1;align=center;verticalAlign=middle;resizable=0;points=[];" vertex="1" connectable="0" parent="pAZi2lpsqg6GbHsb8ALX-23">
          <mxGeometry x="0.0392" y="-4" relative="1" as="geometry">
            <mxPoint as="offset" />
          </mxGeometry>
        </mxCell>
        <mxCell id="pAZi2lpsqg6GbHsb8ALX-26" value="WS" style="edgeLabel;html=1;align=center;verticalAlign=middle;resizable=0;points=[];" vertex="1" connectable="0" parent="pAZi2lpsqg6GbHsb8ALX-23">
          <mxGeometry x="0.267" y="-3" relative="1" as="geometry">
            <mxPoint as="offset" />
          </mxGeometry>
        </mxCell>
        <mxCell id="pAZi2lpsqg6GbHsb8ALX-27" value="User Service" style="rounded=0;whiteSpace=wrap;html=1;" vertex="1" parent="1">
          <mxGeometry x="350" y="40" width="120" height="60" as="geometry" />
        </mxCell>
        <mxCell id="pAZi2lpsqg6GbHsb8ALX-28" value="Zookeeper" style="rounded=0;whiteSpace=wrap;html=1;" vertex="1" parent="1">
          <mxGeometry x="350" y="130" width="120" height="60" as="geometry" />
        </mxCell>
        <mxCell id="pAZi2lpsqg6GbHsb8ALX-30" value="" style="shape=cylinder3;whiteSpace=wrap;html=1;boundedLbl=1;backgroundOutline=1;size=15;" vertex="1" parent="1">
          <mxGeometry x="565" y="30" width="60" height="80" as="geometry" />
        </mxCell>
      </root>
    </mxGraphModel>
  </diagram>
  <diagram id="E92B0nt0l6gBewUieFqu" name="Page-2">
    <mxGraphModel grid="1" page="1" gridSize="10" guides="1" tooltips="1" connect="1" arrows="1" fold="1" pageScale="1" pageWidth="850" pageHeight="1100" math="0" shadow="0">
      <root>
        <mxCell id="0" />
        <mxCell id="1" parent="0" />
      </root>
    </mxGraphModel>
  </diagram>
</mxfile>
